<?xml version="1.0" encoding="utf-8"?>
<!-- Generator: Adobe Illustrator 24.3.0, SVG Export Plug-In . SVG Version: 6.00 Build 0)  -->
<svg version="1.1" id="Capa_1" xmlns="http://www.w3.org/2000/svg" xmlns:xlink="http://www.w3.org/1999/xlink" x="0px" y="0px"
	 viewBox="0 0 512 512" style="enable-background:new 0 0 512 512;" xml:space="preserve">
<style type="text/css">
	.st0{fill:#FFFFFF;}
	.st1{opacity:0.6;}
</style>
<g>
	<path class="st0" d="M511.8,115.4c0-5.5-4.5-10-10-10h-418L72.1,33c-0.8-4.8-5-8.4-9.9-8.4H10c-5.5,0-10,4.5-10,10s4.5,10,10,10
		h43.7l11.7,72.3l9.3,72c0,0,0,0,0,0c0,0,0,0,0,0l23.8,173.8c2.5,17.9,17.4,31.5,35.1,32.4c-8.2,9.8-13.1,22.4-13.1,36.2
		c0,31,24.9,56.1,55.5,56.1s55.5-25.2,55.5-56.1c0-13.8-4.9-26.4-13.1-36.1h122.9c-8.1,9.8-13.1,22.4-13.1,36.1
		c0,31,24.9,56.1,55.5,56.1c30.6,0,55.5-25.2,55.5-56.1c0-14.1-5.1-27-13.6-36.8c22.7-3.7,41-22.1,44.3-45.7l20.7-151.2H502
		c2.7,0,5.2-1.1,7.1-2.9s2.9-4.4,2.9-7.1L511.8,115.4z M491.8,125.4l0.1,52.1H93.4l-6.7-52.1L491.8,125.4z M211.6,431.3
		c0,19.9-15.9,36.1-35.5,36.1s-35.5-16.2-35.5-36.1s15.9-36.1,35.5-36.1C195.6,395.1,211.6,411.4,211.6,431.3z M383.9,467.4
		c-19.6,0-35.5-16.2-35.5-36.1s15.9-36.1,35.5-36.1s35.5,16.2,35.5,36.1S403.4,467.4,383.9,467.4z M450.2,346
		c-2.3,16.6-16.4,29.1-32.9,29.1H135.5c-8.5,0-15.9-6.5-17.1-15.2L96.1,197.5h374.4L450.2,346z"/>
</g>
<g class="st1">
	<path class="st0" d="M356.1,342.6V226.4h70.1L405,342.6H356.1z"/>
	<g>
		<path class="st0" d="M309.3,226.4v116.2h-48.8V226.4L309.3,226.4z"/>
		<g>
			<path class="st0" d="M164.7,342.6l-10.6-116.2h59.5v116.2H164.7z"/>
		</g>
	</g>
</g>
</svg>
