<svg xmlns="http://www.w3.org/2000/svg" xmlns:xlink="http://www.w3.org/1999/xlink" width="825.76" height="400" viewBox="0 0 825.76 400"><defs><clipPath id="clip-path" transform="translate(-10 -10)"><rect width="850" height="420" style="fill:none"/></clipPath></defs><g id="Capa_2" data-name="Capa 2"><g id="Capa_1-2" data-name="Capa 1"><g style="clip-path:url(#clip-path)"><circle cx="200" cy="200" r="200" style="fill:#201f66"/><path d="M210.5,310.5A200.07,200.07,0,0,0,397.77,180.83C383.73,89.74,305,20,210,20,115.63,20,37.35,88.8,22.53,179A200.09,200.09,0,0,0,210.5,310.5Z" transform="translate(-10 -10)" style="fill:#243490"/><circle cx="60.26" cy="170.46" r="30.04" style="fill:#fff"/><circle cx="220.26" cy="250.46" r="30.04" style="fill:#fff"/><circle cx="139.76" cy="209.96" r="30.04" style="fill:#fff"/><path d="M409.94,215H341.75l-50-40-191.46.46,0,10L288.25,185l50,40h71.19C409.69,221.69,409.85,218.35,409.94,215Z" transform="translate(-10 -10)" style="fill:#fff"/><path d="M391.08,295H341.75l-50-40H260v10h28.25l50,40H386C387.81,301.72,389.48,298.38,391.08,295Z" transform="translate(-10 -10)" style="fill:#fff"/><path d="M404.92,255H341.75l-50-40H180v10H288.25l50,40h64.09Q403.75,260,404.92,255Z" transform="translate(-10 -10)" style="fill:#fff"/><path d="M450.67,206.85V121.54h25.2a39.52,39.52,0,0,1,20.07,5,34.35,34.35,0,0,1,13.56,14.3,45.41,45.41,0,0,1,4.8,21.21v4.27a45.21,45.21,0,0,1-4.83,21.33,33.93,33.93,0,0,1-13.77,14.18,41.35,41.35,0,0,1-20.48,5Zm14.83-73.36V195h9.66q11.67,0,17.9-7.3t6.36-20.95V162q0-13.89-6-21.21t-17.52-7.33Z" transform="translate(-10 -10)"/><path d="M525.44,183.82A19.49,19.49,0,0,1,528.66,173q3.23-5,12.72-11.75a52.83,52.83,0,0,1-7-10.67,20.75,20.75,0,0,1-2-8.49q0-10,6.09-15.85T555,120.37q9.31,0,15.26,5.48a17.68,17.68,0,0,1,5.95,13.56,18.62,18.62,0,0,1-2.7,9.81,31.83,31.83,0,0,1-8.84,8.94l-5.8,4.22,16.46,19.45a34.06,34.06,0,0,0,3.58-15.64h12.36q0,15.76-7.38,25.84l12.53,14.82H579.87l-4.8-5.68q-9.15,6.86-21.8,6.85T533,201.31Q525.44,194.61,525.44,183.82Zm28.24,12.84a21.72,21.72,0,0,0,13.48-4.81l-18.64-22-1.81,1.29q-7,5.33-7,12.19a12.76,12.76,0,0,0,3.8,9.6Q547.29,196.67,553.68,196.66Zm-7.85-55q0,4.92,6,12.36l6.51-4.45,1.81-1.47a10.52,10.52,0,0,0,3.64-8.26,7.55,7.55,0,0,0-2.52-5.71,8.92,8.92,0,0,0-6.39-2.38,8.34,8.34,0,0,0-6.62,2.82A10.35,10.35,0,0,0,545.83,141.7Z" transform="translate(-10 -10)"/><path d="M650.36,184.88a10.29,10.29,0,0,0-4-8.67q-3.95-3-14.26-6.16a68.76,68.76,0,0,1-16.41-6.91q-11.65-7.32-11.66-19.1a20.76,20.76,0,0,1,8.41-17q8.4-6.69,21.82-6.68a36.83,36.83,0,0,1,15.88,3.28,26.11,26.11,0,0,1,11,9.34,24,24,0,0,1,4,13.45H650.36q0-6.67-4.19-10.46t-12-3.78q-7.28,0-11.28,3.11a10.33,10.33,0,0,0-4,8.67q0,4.7,4.34,7.82t14.3,6.1a66,66,0,0,1,16,6.73,25.39,25.39,0,0,1,8.85,8.68,22.52,22.52,0,0,1,2.81,11.45,20.28,20.28,0,0,1-8.17,17q-8.18,6.3-22.18,6.3a41.77,41.77,0,0,1-17-3.42,28.56,28.56,0,0,1-12.07-9.47,23.58,23.58,0,0,1-4.31-14.06h14.83q0,7.26,4.8,11.25c3.2,2.66,7.8,4,13.77,4q7.74,0,11.63-3.13A10.11,10.11,0,0,0,650.36,184.88Z" transform="translate(-10 -10)"/><path d="M482.75,273.56H458.1v20.16h28.63v6.13H450.6V243h35.74v6.13H458.1v18.32h24.65Z" transform="translate(-10 -10)"/><path d="M502.79,299.85h-7.23v-60h7.23Z" transform="translate(-10 -10)"/><path d="M531.89,300.63q-8.6,0-14-5.64t-5.39-15.1v-1.33a25.41,25.41,0,0,1,2.4-11.23,18.72,18.72,0,0,1,6.72-7.73,16.88,16.88,0,0,1,9.35-2.8q8.25,0,12.81,5.43t4.58,15.55v3H519.74a15.06,15.06,0,0,0,3.65,10.1,11.5,11.5,0,0,0,8.89,3.84,12.65,12.65,0,0,0,6.49-1.56,16.12,16.12,0,0,0,4.64-4.14l4.42,3.44Q542.52,300.63,531.89,300.63Zm-.9-37.89a9.62,9.62,0,0,0-7.34,3.19q-3,3.18-3.67,8.92h21.17v-.55q-.31-5.51-3-8.53A9.08,9.08,0,0,0,531,262.74Z" transform="translate(-10 -10)"/><path d="M573.69,294.73a10.43,10.43,0,0,0,6.76-2.34,8.26,8.26,0,0,0,3.2-5.86h6.83a13.1,13.1,0,0,1-2.5,6.92,16.41,16.41,0,0,1-6.15,5.23,17.76,17.76,0,0,1-8.14,1.95q-8.64,0-13.73-5.76t-5.1-15.76V277.9a25.44,25.44,0,0,1,2.26-11,17.25,17.25,0,0,1,6.51-7.46,18.46,18.46,0,0,1,10-2.66,16.92,16.92,0,0,1,11.81,4.26,15.2,15.2,0,0,1,5,11.06h-6.83a10,10,0,0,0-3.11-6.74,9.65,9.65,0,0,0-6.89-2.64,10.11,10.11,0,0,0-8.54,4q-3,4-3,11.46v1.37q0,7.31,3,11.25A10.17,10.17,0,0,0,573.69,294.73Z" transform="translate(-10 -10)"/><path d="M608.41,247.35v10.24h7.89v5.58h-7.89v26.25a5.89,5.89,0,0,0,1.06,3.81,4.42,4.42,0,0,0,3.59,1.27,17.68,17.68,0,0,0,3.44-.47v5.83a21.38,21.38,0,0,1-5.55.77c-3.23,0-5.66-1-7.3-2.93s-2.46-4.72-2.46-8.32V263.17h-7.7v-5.58h7.7V247.35Z" transform="translate(-10 -10)"/><path d="M645.17,264.07a21.89,21.89,0,0,0-3.55-.27q-7.11,0-9.65,6.05v30h-7.23V257.59h7l.12,4.88A11.25,11.25,0,0,1,642,256.8a7.42,7.42,0,0,1,3.2.55Z" transform="translate(-10 -10)"/><path d="M649.12,278.33a24.9,24.9,0,0,1,2.44-11.17,18.21,18.21,0,0,1,6.8-7.66,18.45,18.45,0,0,1,9.94-2.7,17.83,17.83,0,0,1,14,6q5.34,6,5.33,15.9v.51a25.12,25.12,0,0,1-2.36,11.07,18,18,0,0,1-6.76,7.64,18.72,18.72,0,0,1-10.09,2.73,17.79,17.79,0,0,1-13.93-6q-5.34-6-5.33-15.82Zm7.26.86q0,7,3.26,11.29a11.06,11.06,0,0,0,17.48-.06q3.25-4.32,3.25-12.09,0-7-3.3-11.27a10.5,10.5,0,0,0-8.77-4.32,10.39,10.39,0,0,0-8.64,4.26Q656.39,271.26,656.38,279.19Zm15.2-39.34h8.75l-10.47,11.49-5.82,0Z" transform="translate(-10 -10)"/><path d="M703.49,257.59l.24,5.31a15.4,15.4,0,0,1,12.65-6.1q13.39,0,13.52,15.12v27.93h-7.23v-28c0-3-.72-5.3-2.09-6.76s-3.49-2.18-6.38-2.18a10.44,10.44,0,0,0-6.18,1.87,12.74,12.74,0,0,0-4.14,4.92v30.12h-7.22V257.59Z" transform="translate(-10 -10)"/><path d="M740.84,246.38a4.27,4.27,0,0,1,1.07-3,4,4,0,0,1,3.18-1.21,4.1,4.1,0,0,1,3.21,1.21,4.24,4.24,0,0,1,1.09,3,4.1,4.1,0,0,1-1.09,2.92,4.15,4.15,0,0,1-3.21,1.18,4.08,4.08,0,0,1-3.18-1.18A4.13,4.13,0,0,1,740.84,246.38Zm7.81,53.47h-7.23V257.59h7.23Z" transform="translate(-10 -10)"/><path d="M777.16,294.73a10.43,10.43,0,0,0,6.76-2.34,8.19,8.19,0,0,0,3.2-5.86H794a13.1,13.1,0,0,1-2.5,6.92,16.56,16.56,0,0,1-6.15,5.23,17.8,17.8,0,0,1-8.15,1.95q-8.62,0-13.73-5.76t-5.09-15.76V277.9a25.44,25.44,0,0,1,2.26-11,17.25,17.25,0,0,1,6.51-7.46,18.45,18.45,0,0,1,10-2.66,17,17,0,0,1,11.82,4.26,15.23,15.23,0,0,1,5,11.06h-6.84a9.92,9.92,0,0,0-3.1-6.74,9.65,9.65,0,0,0-6.9-2.64,10.1,10.1,0,0,0-8.53,4q-3,4-3,11.46v1.37q0,7.31,3,11.25A10.16,10.16,0,0,0,777.16,294.73Z" transform="translate(-10 -10)"/><path d="M828.18,299.85a15,15,0,0,1-1-4.45,16.12,16.12,0,0,1-12,5.23,14.9,14.9,0,0,1-10.25-3.53,11.45,11.45,0,0,1-4-9,11.94,11.94,0,0,1,5-10.25q5-3.66,14.13-3.65h7v-3.32a8.13,8.13,0,0,0-2.27-6q-2.26-2.25-6.68-2.25a10.53,10.53,0,0,0-6.48,2A5.74,5.74,0,0,0,809,269.3h-7.27a10,10,0,0,1,2.25-6.11,15.47,15.47,0,0,1,6.09-4.67,20.64,20.64,0,0,1,8.46-1.72q7.31,0,11.45,3.66t4.29,10.06V290a23.77,23.77,0,0,0,1.49,9.26v.62Zm-12-5.51a12.7,12.7,0,0,0,6.44-1.75,10.78,10.78,0,0,0,4.42-4.57v-8.68h-5.67q-13.27,0-13.28,7.78a6.59,6.59,0,0,0,2.27,5.31A8.68,8.68,0,0,0,816.19,294.34Z" transform="translate(-10 -10)"/></g></g></g></svg>